<svg width="38" height="38" viewBox="0 0 38 38" fill="none" xmlns="http://www.w3.org/2000/svg">
<path d="M19 14.2499L6.43446 22.4175C5.34536 23.1254 4.80081 23.4794 4.61221 23.9283C4.44739 24.3205 4.44739 24.7626 4.61221 25.1549M19 14.2499L31.5656 22.4175C32.6547 23.1254 33.1992 23.4794 33.3878 23.9283C33.5526 24.3205 33.5526 24.7626 33.3878 25.1549M19 14.2499V3.95826M19 23.7499L6.43445 15.5823C5.34536 14.8744 4.80081 14.5205 4.61221 14.0716C4.44739 13.6793 4.44739 13.2372 4.61221 12.8449M19 23.7499L31.5656 15.5823C32.6546 14.8744 33.1992 14.5205 33.3878 14.0716C33.5526 13.6793 33.5526 13.2372 33.3878 12.8449M19 23.7499V34.0416M33.6806 25.2908L20.3806 33.9358C19.8809 34.2607 19.631 34.4231 19.3618 34.4863C19.1238 34.5421 18.8762 34.5421 18.6382 34.4863C18.369 34.4231 18.1191 34.2607 17.6194 33.9358L4.31937 25.2908C3.89819 25.0171 3.68761 24.8802 3.53503 24.6976C3.39997 24.536 3.29852 24.349 3.23661 24.1477C3.16667 23.9203 3.16667 23.6691 3.16667 23.1668V14.8331C3.16667 14.3307 3.16667 14.0796 3.23661 13.8521C3.29852 13.6508 3.39997 13.4639 3.53503 13.3022C3.68761 13.1197 3.89819 12.9828 4.31937 12.709L17.6194 4.06401C18.1191 3.73918 18.369 3.57677 18.6382 3.51357C18.8762 3.45772 19.1238 3.45772 19.3618 3.51357C19.631 3.57677 19.8809 3.73918 20.3806 4.06401L33.6806 12.709C34.1018 12.9828 34.3124 13.1197 34.465 13.3022C34.6 13.4639 34.7015 13.6508 34.7634 13.8521C34.8333 14.0796 34.8333 14.3307 34.8333 14.8331V23.1668C34.8333 23.6691 34.8333 23.9203 34.7634 24.1477C34.7015 24.349 34.6 24.536 34.465 24.6976C34.3124 24.8802 34.1018 25.0171 33.6806 25.2908Z" stroke="#EDA909" stroke-width="2" stroke-linecap="round" stroke-linejoin="round"/>
</svg>
