<svg width="14" height="14" viewBox="0 0 14 14" fill="none" xmlns="http://www.w3.org/2000/svg">
<path d="M5.24984 12.25V7.93333C5.24984 7.60664 5.24984 7.44329 5.31342 7.31851C5.36935 7.20874 5.45858 7.11951 5.56834 7.06358C5.69313 7 5.85648 7 6.18317 7H7.81651C8.1432 7 8.30655 7 8.43133 7.06358C8.5411 7.11951 8.63033 7.20874 8.68626 7.31851C8.74984 7.44329 8.74984 7.60664 8.74984 7.93333V12.25M1.1665 5.54167L6.43984 1.58667C6.64066 1.43605 6.74107 1.36075 6.85134 1.33172C6.94868 1.30609 7.051 1.30609 7.14834 1.33172C7.25861 1.36075 7.35902 1.43605 7.55984 1.58667L12.8332 5.54167M2.33317 4.66667V10.3833C2.33317 11.0367 2.33317 11.3634 2.46033 11.613C2.57218 11.8325 2.75066 12.011 2.97018 12.1228C3.21975 12.25 3.54644 12.25 4.19984 12.25H9.79984C10.4532 12.25 10.7799 12.25 11.0295 12.1228C11.249 12.011 11.4275 11.8325 11.5393 11.613C11.6665 11.3634 11.6665 11.0367 11.6665 10.3833V4.66667L8.11984 2.00667C7.7182 1.70544 7.51739 1.55483 7.29683 1.49677C7.10215 1.44552 6.89753 1.44552 6.70284 1.49677C6.48229 1.55483 6.28147 1.70544 5.87984 2.00667L2.33317 4.66667Z" stroke="white" stroke-linecap="round" stroke-linejoin="round"/>
</svg>
