<svg width="14" height="14" viewBox="0 0 14 14" fill="none" xmlns="http://www.w3.org/2000/svg">
<path d="M4.6665 12.25V4.08333C4.6665 3.54085 4.6665 3.26961 4.72613 3.04707C4.88795 2.44316 5.35966 1.97145 5.96357 1.80963C6.18611 1.75 6.45735 1.75 6.99984 1.75C7.54232 1.75 7.81356 1.75 8.0361 1.80963C8.64002 1.97145 9.11172 2.44316 9.27354 3.04707C9.33317 3.26961 9.33317 3.54085 9.33317 4.08333V7.875M9.33317 10.2083V12.25M3.9665 12.25H10.0332C11.0133 12.25 11.5033 12.25 11.8777 12.0593C12.2069 11.8915 12.4747 11.6238 12.6424 11.2945C12.8332 10.9201 12.8332 10.4301 12.8332 9.45V6.88333C12.8332 5.90324 12.8332 5.4132 12.6424 5.03885C12.4747 4.70957 12.2069 4.44185 11.8777 4.27407C11.5033 4.08333 11.0133 4.08333 10.0332 4.08333H3.9665C2.98641 4.08333 2.49637 4.08333 2.12202 4.27407C1.79274 4.44185 1.52502 4.70957 1.35724 5.03885C1.1665 5.4132 1.1665 5.90324 1.1665 6.88333V9.45C1.1665 10.4301 1.1665 10.9201 1.35724 11.2945C1.52502 11.6238 1.79274 11.8915 2.12202 12.0593C2.49637 12.25 2.98641 12.25 3.9665 12.25ZM7.4665 10.2083H10.3248C10.4882 10.2083 10.5699 10.2083 10.6323 10.1765C10.6871 10.1486 10.7318 10.104 10.7597 10.0491C10.7915 9.98669 10.7915 9.90501 10.7915 9.74167V8.34167C10.7915 8.17832 10.7915 8.09664 10.7597 8.03425C10.7318 7.97937 10.6871 7.93475 10.6323 7.90679C10.5699 7.875 10.4882 7.875 10.3248 7.875H7.4665C7.30316 7.875 7.22148 7.875 7.15909 7.90679C7.10421 7.93475 7.05959 7.97937 7.03163 8.03425C6.99984 8.09664 6.99984 8.17832 6.99984 8.34167V9.74167C6.99984 9.90501 6.99984 9.98669 7.03163 10.0491C7.05959 10.104 7.10421 10.1486 7.15909 10.1765C7.22148 10.2083 7.30316 10.2083 7.4665 10.2083Z" stroke="white" stroke-linecap="round" stroke-linejoin="round"/>
</svg>
