<svg width="32" height="40" viewBox="0 0 32 40" fill="none" xmlns="http://www.w3.org/2000/svg">
<path d="M10.9459 35.5639C10.9459 35.6947 11.0147 35.8157 11.1264 35.8811L15.5741 38.4861C15.6858 38.5515 15.8235 38.5515 15.9351 38.4861L20.3829 35.8811C20.4945 35.8157 20.5634 35.6947 20.5634 35.5639V34.0576H22.0074V35.5639L22.0035 35.6859C21.9637 36.2925 21.6284 36.843 21.1049 37.1496L16.6571 39.7546L16.551 39.8122C16.0491 40.0626 15.4602 40.0626 14.9582 39.8122L14.8521 39.7546L10.4044 37.1496C9.88081 36.843 9.54555 36.2925 9.50573 35.6859L9.50185 35.5639V34.0576H10.9459V35.5639Z" fill="#EDA909"/>
<path d="M10.9459 30.4369C10.9459 30.5677 11.0147 30.6887 11.1264 30.7541L15.5741 33.3591C15.6858 33.4245 15.8235 33.4245 15.9351 33.3591L20.3829 30.7541C20.4945 30.6887 20.5634 30.5677 20.5634 30.4369V28.9306H22.0074V30.4369L22.0035 30.5589C21.9637 31.1655 21.6284 31.716 21.1049 32.0227L16.6571 34.6276L16.551 34.6852C16.0491 34.9356 15.4602 34.9356 14.9582 34.6852L14.8521 34.6276L10.4044 32.0227C9.88081 31.716 9.54555 31.1655 9.50573 30.5589L9.50185 30.4369V28.9306H10.9459V30.4369Z" fill="#EDA909"/>
<path fill-rule="evenodd" clip-rule="evenodd" d="M5.35026 15.5431C5.90871 15.2161 6.59684 15.2161 7.1553 15.5431L11.603 18.1481C12.1615 18.4751 12.5055 19.0797 12.5056 19.7338V24.9437L12.5017 25.0657C12.4619 25.6723 12.1266 26.2228 11.603 26.5295L7.1553 29.1344L7.04918 29.192C6.54722 29.4425 5.95834 29.4425 5.45637 29.192L5.35026 29.1344L0.902521 26.5295C0.378957 26.2228 0.0437011 25.6723 0.00387802 25.0657L0 24.9437V19.7338C4.42343e-05 19.1205 0.302306 18.5507 0.800282 18.2124L0.902521 18.1481L5.35026 15.5431ZM6.43328 16.8116C6.32163 16.7463 6.18392 16.7463 6.07227 16.8116L1.62454 19.4166C1.51288 19.482 1.44408 19.603 1.44403 19.7338V24.9437C1.44404 25.0746 1.51288 25.1955 1.62454 25.261L6.07227 27.8659C6.18395 27.9313 6.3216 27.9313 6.43328 27.8659L10.881 25.261C10.9927 25.1955 11.0615 25.0746 11.0615 24.9437V19.7338C11.0615 19.603 10.9927 19.482 10.881 19.4166L6.43328 16.8116Z" fill="#EDA909"/>
<path fill-rule="evenodd" clip-rule="evenodd" d="M24.8447 15.5431C25.4032 15.2161 26.0913 15.2161 26.6497 15.5431L31.0975 18.1481C31.6559 18.4751 32 19.0797 32 19.7338V24.9437L31.9961 25.0657C31.9563 25.6723 31.621 26.2228 31.0975 26.5295L26.6497 29.1344L26.5436 29.192C26.0417 29.4425 25.4528 29.4425 24.9508 29.192L24.8447 29.1344L20.397 26.5295C19.8734 26.2228 19.5381 25.6723 19.4983 25.0657L19.4944 24.9437V19.7338C19.4945 19.1205 19.7968 18.5507 20.2947 18.2124L20.397 18.1481L24.8447 15.5431ZM25.9277 16.8116C25.8161 16.7463 25.6784 16.7463 25.5667 16.8116L21.119 19.4166C21.0073 19.482 20.9385 19.603 20.9385 19.7338V24.9437C20.9385 25.0746 21.0073 25.1955 21.119 25.261L25.5667 27.8659C25.6784 27.9313 25.8161 27.9313 25.9277 27.8659L30.3755 25.261C30.4871 25.1955 30.556 25.0746 30.556 24.9437V19.7338C30.5559 19.603 30.4871 19.482 30.3755 19.4166L25.9277 16.8116Z" fill="#EDA909"/>
<path fill-rule="evenodd" clip-rule="evenodd" d="M19.1331 0.182571C19.4324 -0.0845536 19.8885 -0.0551258 20.1519 0.248374C20.4153 0.551993 20.3863 1.01467 20.0871 1.28192L18.8948 2.34659C18.6612 2.55512 18.5271 2.85562 18.5271 3.17128V4.76058C18.5271 4.83316 18.5161 4.90324 18.4967 4.96944L20.9892 6.42928C21.5477 6.75635 21.8917 7.36088 21.8918 8.01501V13.225L21.8879 13.3469C21.8481 13.9535 21.5128 14.504 20.9892 14.8107L16.5415 17.4156L16.4354 17.4732C15.9334 17.7237 15.3446 17.7237 14.8426 17.4732L14.7365 17.4156L10.2887 14.8107C9.76517 14.504 9.42992 13.9535 9.39009 13.3469L9.38622 13.225V8.01501C9.38626 7.40174 9.68852 6.83194 10.1865 6.49365L10.2887 6.42928L12.7054 5.01343C12.6769 4.93459 12.6607 4.84948 12.6607 4.76058V3.17128C12.6606 2.85562 12.5266 2.55512 12.293 2.34659L11.1007 1.28192C10.8014 1.01467 10.7724 0.551993 11.0358 0.248374C11.2992 -0.0551258 11.7553 -0.0845536 12.0546 0.182571L13.247 1.24688C13.7921 1.73351 14.1047 2.43466 14.1047 3.17128V4.1941L14.7365 3.82431C15.2949 3.49726 15.9831 3.49726 16.5415 3.82431L17.083 4.14117V3.17128C17.0831 2.43466 17.3956 1.73351 17.9408 1.24688L19.1331 0.182571ZM15.8195 5.09282C15.7078 5.02747 15.5701 5.02747 15.4585 5.09282L11.0108 7.69779C10.8991 7.76319 10.8303 7.88422 10.8302 8.01501V13.225C10.8303 13.3558 10.8991 13.4767 11.0108 13.5422L15.4585 16.1471C15.5702 16.2125 15.7078 16.2125 15.8195 16.1471L20.2672 13.5422C20.3789 13.4767 20.4477 13.3558 20.4477 13.225V8.01501C20.4477 7.88422 20.3789 7.76319 20.2672 7.69779L15.8195 5.09282Z" fill="#EDA909"/>
</svg>
